# xmcd
#
# Track frame offsets:
#	150
#	24869
#	34262
#	48559
#	59710
#	67205
#	84423
#	94336
#	102982
#	117842
#	132536
#	150765
#	165860
#	181766
#	197806
#
# Disc length: 3040 seconds
#
# Revision: 7
# Processed by: cddbd v1.5.2PL0 Copyright (c) Steve Scherf et al.
# Submitted via: EasyCDDAExtractor 15.3.0.1
#
DISCID=c50bde0f
DTITLE=Selena - Unforgettable - CD 2
DYEAR=2005
DGENRE=Latin
TTITLE0=Como La Flor
TTITLE1=Amor Prohibido
TTITLE2=Baila Esta Cumbia
TTITLE3=Ya Ves
TTITLE4=Las Cadenas
TTITLE5=Yo Te Amo
TTITLE6=Tus Desprecios
TTITLE7=Cobarde
TTITLE8=Si La Quieres
TTITLE9=El Chico Del Apartamento 512
TTITLE10=Bidi Bidi Bom Bom
TTITLE11=Si Una Vez
TTITLE12=Que Creias
TTITLE13=No Me Queda Mas
TTITLE14=Como La Flor
EXTD=
EXTT0=
EXTT1=
EXTT2=
EXTT3=
EXTT4=
EXTT5=
EXTT6=
EXTT7=
EXTT8=
EXTT9=
EXTT10=
EXTT11=
EXTT12=
EXTT13=
EXTT14=
PLAYORDER=
